solid 6EXcover
facet normal 0.0 -1.0 0.0
  outer loop
    vertex 59.330127018922205 0.0 2.5000000000000036
    vertex 55.000000000000014 0.0 1.9999999999999998
    vertex 58.535533905932745 0.0 1.4644660940672676
  endloop
endfacet
facet normal 0.0 -1.0 0.0
  outer loop
    vertex 55.000000000000014 0.0 1.9999999999999998
    vertex 59.330127018922205 0.0 2.5000000000000036
    vertex 55.77645713530757 0.0 2.1022225211328
  endloop
endfacet
facet normal 0.0 -1.0 0.0
  outer loop
    vertex 55.77645713530757 0.0 2.1022225211328
    vertex 59.330127018922205 0.0 2.5000000000000036
    vertex 56.50000000000001 0.0 2.401923788646688
  endloop
endfacet
facet normal 0.0 -1.0 0.0
  outer loop
    vertex 56.50000000000001 0.0 2.401923788646688
    vertex 59.330127018922205 0.0 2.5000000000000036
    vertex 57.121320343559645 0.0 2.878679656440361
  endloop
endfacet
facet normal 0.0 -1.0 0.0
  outer loop
    vertex 57.121320343559645 0.0 2.878679656440361
    vertex 59.330127018922205 0.0 2.5000000000000036
    vertex 59.82962913144535 0.0 3.7059047744873976
  endloop
endfacet
facet normal 0.0 -1.0 0.0
  outer loop
    vertex 57.121320343559645 0.0 2.878679656440361
    vertex 59.82962913144535 0.0 3.7059047744873976
    vertex 57.59807621135332 0.0 3.500000000000002
  endloop
endfacet
facet normal 0.0 -1.0 0.0
  outer loop
    vertex 57.59807621135332 0.0 3.500000000000002
    vertex 59.82962913144535 0.0 3.7059047744873976
    vertex 57.89777747886722 0.0 4.223542864692439
  endloop
endfacet
facet normal 0.0 -1.0 0.0
  outer loop
    vertex 57.89777747886722 0.0 4.223542864692439
    vertex 59.82962913144535 0.0 3.7059047744873976
    vertex 60.0 0.0 4.999999999999998
  endloop
endfacet
facet normal 0.0 -1.0 0.0
  outer loop
    vertex 57.89777747886722 0.0 4.223542864692439
    vertex 60.0 0.0 4.999999999999998
    vertex 58.00000000000001 0.0 4.999999999999999
  endloop
endfacet
facet normal 0.0 -1.0 0.0
  outer loop
    vertex 58.00000000000001 0.0 4.999999999999999
    vertex 60.0 0.0 4.999999999999998
    vertex 60.0 0.0 7.999999999999999
  endloop
endfacet
facet normal 0.0 -1.0 0.0
  outer loop
    vertex 58.00000000000001 0.0 4.999999999999999
    vertex 60.0 0.0 7.999999999999999
    vertex 58.00000000000001 0.0 6.0
  endloop
endfacet
facet normal 0.0 -1.0 0.0
  outer loop
    vertex 58.00000000000001 0.0 6.0
    vertex 56.00000000000001 0.0 7.999999999999999
    vertex 56.00000000000001 0.0 6.0
  endloop
endfacet
facet normal 0.0 -1.0 0.0
  outer loop
    vertex 56.00000000000001 0.0 7.999999999999999
    vertex 58.00000000000001 0.0 6.0
    vertex 60.0 0.0 7.999999999999999
  endloop
endfacet
facet normal 0.0 -1.0 0.0
  outer loop
    vertex 55.000000000000014 0.0 8.459899447643692e-15
    vertex -0.9999999999999887 -7.845857613429771e-19 2.0000000000000053
    vertex -0.9999999999999999 -7.845857613429771e-19 5.699574917546562e-15
  endloop
endfacet
facet normal 0.0 -1.0 0.0
  outer loop
    vertex -0.9999999999999887 -7.845857613429771e-19 2.0000000000000053
    vertex 55.000000000000014 0.0 8.459899447643692e-15
    vertex 56.29409522551261 0.0 0.1703708685546672
  endloop
endfacet
facet normal 0.0 -1.0 0.0
  outer loop
    vertex -0.9999999999999887 -7.845857613429771e-19 2.0000000000000053
    vertex 56.29409522551261 0.0 0.1703708685546672
    vertex 57.50000000000001 0.0 0.6698729810778133
  endloop
endfacet
facet normal 0.0 -1.0 0.0
  outer loop
    vertex -0.9999999999999887 -7.845857613429771e-19 2.0000000000000053
    vertex 57.50000000000001 0.0 0.6698729810778133
    vertex 58.535533905932745 0.0 1.4644660940672676
  endloop
endfacet
facet normal 0.0 -1.0 0.0
  outer loop
    vertex -0.9999999999999887 -7.845857613429771e-19 2.0000000000000053
    vertex 58.535533905932745 0.0 1.4644660940672676
    vertex 55.000000000000014 0.0 1.9999999999999998
  endloop
endfacet
facet normal -0.0 1.0 -0.0
  outer loop
    vertex -0.9999999999999887 120.0 2.0000000000000053
    vertex 55.000000000000014 120.0 8.459899447643692e-15
    vertex -0.9999999999999999 120.0 5.699574917546562e-15
  endloop
endfacet
facet normal -0.0 1.0 -0.0
  outer loop
    vertex 55.000000000000014 120.0 8.459899447643692e-15
    vertex -0.9999999999999887 120.0 2.0000000000000053
    vertex 56.29409522551261 120.0 0.1703708685546672
  endloop
endfacet
facet normal -0.0 1.0 -0.0
  outer loop
    vertex 56.29409522551261 120.0 0.1703708685546672
    vertex -0.9999999999999887 120.0 2.0000000000000053
    vertex 57.50000000000001 120.0 0.6698729810778133
  endloop
endfacet
facet normal -0.0 1.0 -0.0
  outer loop
    vertex 57.50000000000001 120.0 0.6698729810778133
    vertex -0.9999999999999887 120.0 2.0000000000000053
    vertex 58.535533905932745 120.0 1.4644660940672676
  endloop
endfacet
facet normal -0.0 1.0 -0.0
  outer loop
    vertex 58.535533905932745 120.0 1.4644660940672676
    vertex -0.9999999999999887 120.0 2.0000000000000053
    vertex 55.000000000000014 120.0 1.9999999999999998
  endloop
endfacet
facet normal -0.0 1.0 -0.0
  outer loop
    vertex 56.00000000000001 120.0 7.999999999999999
    vertex 58.00000000000001 120.0 6.0
    vertex 56.00000000000001 120.0 6.0
  endloop
endfacet
facet normal -0.0 1.0 -0.0
  outer loop
    vertex 55.000000000000014 120.0 1.9999999999999998
    vertex 59.330127018922205 120.0 2.5000000000000036
    vertex 58.535533905932745 120.0 1.4644660940672676
  endloop
endfacet
facet normal -0.0 1.0 -0.0
  outer loop
    vertex 59.330127018922205 120.0 2.5000000000000036
    vertex 55.000000000000014 120.0 1.9999999999999998
    vertex 55.77645713530757 120.0 2.1022225211328
  endloop
endfacet
facet normal -0.0 1.0 -0.0
  outer loop
    vertex 59.330127018922205 120.0 2.5000000000000036
    vertex 55.77645713530757 120.0 2.1022225211328
    vertex 56.50000000000001 120.0 2.401923788646688
  endloop
endfacet
facet normal -0.0 1.0 -0.0
  outer loop
    vertex 59.330127018922205 120.0 2.5000000000000036
    vertex 56.50000000000001 120.0 2.401923788646688
    vertex 57.121320343559645 120.0 2.878679656440361
  endloop
endfacet
facet normal -0.0 1.0 -0.0
  outer loop
    vertex 59.330127018922205 120.0 2.5000000000000036
    vertex 57.121320343559645 120.0 2.878679656440361
    vertex 59.82962913144535 120.0 3.7059047744873976
  endloop
endfacet
facet normal -0.0 1.0 -0.0
  outer loop
    vertex 59.82962913144535 120.0 3.7059047744873976
    vertex 57.121320343559645 120.0 2.878679656440361
    vertex 57.59807621135332 120.0 3.500000000000002
  endloop
endfacet
facet normal -0.0 1.0 -0.0
  outer loop
    vertex 59.82962913144535 120.0 3.7059047744873976
    vertex 57.59807621135332 120.0 3.500000000000002
    vertex 57.89777747886722 120.0 4.223542864692439
  endloop
endfacet
facet normal -0.0 1.0 -0.0
  outer loop
    vertex 59.82962913144535 120.0 3.7059047744873976
    vertex 57.89777747886722 120.0 4.223542864692439
    vertex 60.0 120.0 4.999999999999998
  endloop
endfacet
facet normal -0.0 1.0 -0.0
  outer loop
    vertex 60.0 120.0 4.999999999999998
    vertex 57.89777747886722 120.0 4.223542864692439
    vertex 58.00000000000001 120.0 4.999999999999999
  endloop
endfacet
facet normal -0.0 1.0 -0.0
  outer loop
    vertex 60.0 120.0 4.999999999999998
    vertex 58.00000000000001 120.0 4.999999999999999
    vertex 60.0 120.0 7.999999999999999
  endloop
endfacet
facet normal -0.0 1.0 -0.0
  outer loop
    vertex 60.0 120.0 7.999999999999999
    vertex 58.00000000000001 120.0 4.999999999999999
    vertex 58.00000000000001 120.0 6.0
  endloop
endfacet
facet normal -0.0 1.0 -0.0
  outer loop
    vertex 60.0 120.0 7.999999999999999
    vertex 58.00000000000001 120.0 6.0
    vertex 56.00000000000001 120.0 7.999999999999999
  endloop
endfacet
facet normal 1.5381635359352164e-16 0.0 -1.0
  outer loop
    vertex 55.000000000000014 120.0 8.459899447643692e-15
    vertex -0.9999999999999999 -7.845857613429771e-19 5.699574917546562e-15
    vertex -0.9999999999999999 120.0 5.699574917546562e-15
  endloop
endfacet
facet normal 1.5381635359352164e-16 0.0 -1.0
  outer loop
    vertex -0.9999999999999999 -7.845857613429771e-19 5.699574917546562e-15
    vertex 55.000000000000014 120.0 8.459899447643692e-15
    vertex 55.000000000000014 0.0 8.459899447643692e-15
  endloop
endfacet
facet normal 0.25881904510252063 0.0 -0.9659258262890683
  outer loop
    vertex 56.29409522551261 120.0 0.1703708685546672
    vertex 55.000000000000014 0.0 8.459899447643692e-15
    vertex 55.000000000000014 120.0 8.459899447643692e-15
  endloop
endfacet
facet normal 0.13052619222005188 0.0 -0.9914448613738104
  outer loop
    vertex 55.000000000000014 0.0 8.459899447643692e-15
    vertex 56.29409522551261 120.0 0.1703708685546672
    vertex 56.29409522551261 0.0 0.1703708685546672
  endloop
endfacet
facet normal 0.49999999999999906 0.0 -0.8660254037844393
  outer loop
    vertex 57.50000000000001 120.0 0.6698729810778133
    vertex 56.29409522551261 0.0 0.1703708685546672
    vertex 56.29409522551261 120.0 0.1703708685546672
  endloop
endfacet
facet normal 0.25881904510252063 0.0 -0.9659258262890683
  outer loop
    vertex 56.29409522551261 0.0 0.1703708685546672
    vertex 57.50000000000001 120.0 0.6698729810778133
    vertex 57.50000000000001 0.0 0.6698729810778133
  endloop
endfacet
facet normal 0.7071067811865468 0.0 -0.7071067811865482
  outer loop
    vertex 58.535533905932745 120.0 1.4644660940672676
    vertex 57.50000000000001 0.0 0.6698729810778133
    vertex 57.50000000000001 120.0 0.6698729810778133
  endloop
endfacet
facet normal 0.49999999999999906 0.0 -0.8660254037844393
  outer loop
    vertex 57.50000000000001 0.0 0.6698729810778133
    vertex 58.535533905932745 120.0 1.4644660940672676
    vertex 58.535533905932745 0.0 1.4644660940672676
  endloop
endfacet
facet normal 0.7071067811865468 0.0 -0.7071067811865482
  outer loop
    vertex 58.535533905932745 120.0 1.4644660940672676
    vertex 59.330127018922205 0.0 2.5000000000000036
    vertex 58.535533905932745 0.0 1.4644660940672676
  endloop
endfacet
facet normal 0.8660254037844386 0.0 -0.5000000000000001
  outer loop
    vertex 59.330127018922205 0.0 2.5000000000000036
    vertex 58.535533905932745 120.0 1.4644660940672676
    vertex 59.330127018922205 120.0 2.5000000000000036
  endloop
endfacet
facet normal 0.8660254037844386 0.0 -0.5000000000000001
  outer loop
    vertex 59.330127018922205 120.0 2.5000000000000036
    vertex 59.82962913144535 0.0 3.7059047744873976
    vertex 59.330127018922205 0.0 2.5000000000000036
  endloop
endfacet
facet normal 0.9659258262890689 0.0 -0.25881904510251896
  outer loop
    vertex 59.82962913144535 0.0 3.7059047744873976
    vertex 59.330127018922205 120.0 2.5000000000000036
    vertex 59.82962913144535 120.0 3.7059047744873976
  endloop
endfacet
facet normal 0.9659258262890689 0.0 -0.25881904510251896
  outer loop
    vertex 59.82962913144535 120.0 3.7059047744873976
    vertex 60.0 0.0 4.999999999999998
    vertex 59.82962913144535 0.0 3.7059047744873976
  endloop
endfacet
facet normal 0.9914448613738109 0.0 -0.13052619222004777
  outer loop
    vertex 60.0 0.0 4.999999999999998
    vertex 59.82962913144535 120.0 3.7059047744873976
    vertex 60.0 120.0 4.999999999999998
  endloop
endfacet
facet normal 1.0 0.0 -0.0
  outer loop
    vertex 60.0 120.0 4.999999999999998
    vertex 60.0 0.0 7.999999999999999
    vertex 60.0 0.0 4.999999999999998
  endloop
endfacet
facet normal 1.0 0.0 -0.0
  outer loop
    vertex 60.0 0.0 7.999999999999999
    vertex 60.0 120.0 4.999999999999998
    vertex 60.0 120.0 7.999999999999999
  endloop
endfacet
facet normal 0.9659258262890684 -1.0448444084082648e-18 -0.2588190451025199
  outer loop
    vertex 57.89777747886722 59.00000000000001 4.223542864692439
    vertex 58.00000000000001 0.0 4.999999999999999
    vertex 57.89777747886722 0.0 4.223542864692439
  endloop
endfacet
facet normal 0.9914448613738114 -0.0 -0.13052619222004497
  outer loop
    vertex 58.00000000000001 0.0 4.999999999999999
    vertex 57.89777747886722 59.00000000000001 4.223542864692439
    vertex 58.00000000000001 59.00000000000001 4.999999999999999
  endloop
endfacet
facet normal 0.8660254037844384 -4.7684519700092345e-17 -0.5000000000000007
  outer loop
    vertex 57.59807621135332 59.00000000000001 3.5000000000000013
    vertex 57.89777747886722 0.0 4.223542864692439
    vertex 57.59807621135332 0.0 3.500000000000002
  endloop
endfacet
facet normal 0.9659258262890684 -1.0448444084082648e-18 -0.2588190451025199
  outer loop
    vertex 57.89777747886722 0.0 4.223542864692439
    vertex 57.59807621135332 59.00000000000001 3.5000000000000013
    vertex 57.89777747886722 59.00000000000001 4.223542864692439
  endloop
endfacet
facet normal 0.707106781186548 -9.700986332901808e-17 -0.707106781186547
  outer loop
    vertex 57.12132034355966 59.00000000000001 2.8786796564403576
    vertex 57.59807621135332 0.0 3.500000000000002
    vertex 57.121320343559645 0.0 2.878679656440361
  endloop
endfacet
facet normal 0.8660254037844384 -4.7684519700092345e-17 -0.5000000000000007
  outer loop
    vertex 57.59807621135332 0.0 3.500000000000002
    vertex 57.12132034355966 59.00000000000001 2.8786796564403576
    vertex 57.59807621135332 59.00000000000001 3.5000000000000013
  endloop
endfacet
facet normal 0.707106781186548 -9.700986332901808e-17 -0.707106781186547
  outer loop
    vertex 57.12132034355966 59.00000000000001 2.8786796564403576
    vertex 56.50000000000001 0.0 2.401923788646688
    vertex 56.50000000000001 59.00000000000001 2.4019237886466844
  endloop
endfacet
facet normal 0.44203613921115364 -2.5491478308170024e-17 -0.8969972417077421
  outer loop
    vertex 56.50000000000001 0.0 2.401923788646688
    vertex 57.12132034355966 59.00000000000001 2.8786796564403576
    vertex 57.121320343559645 0.0 2.878679656440361
  endloop
endfacet
facet normal -0.2588190451025231 3.9852981133607197e-19 0.9659258262890676
  outer loop
    vertex 55.77645713530757 0.0 2.1022225211328
    vertex 56.00000000000001 59.00000000000001 2.1948170074601348
    vertex 55.77645713530757 120.0 2.1022225211328
  endloop
endfacet
facet normal -0.38268343236508984 4.77946604489371e-19 0.9238795325112867
  outer loop
    vertex 56.00000000000001 59.00000000000001 2.1948170074601348
    vertex 55.77645713530757 0.0 2.1022225211328
    vertex 56.50000000000001 0.0 2.401923788646688
  endloop
endfacet
facet normal -0.38268343236508984 4.77946604489371e-19 0.9238795325112867
  outer loop
    vertex 56.00000000000001 59.00000000000001 2.1948170074601348
    vertex 56.50000000000001 0.0 2.401923788646688
    vertex 56.50000000000001 59.00000000000001 2.4019237886466844
  endloop
endfacet
facet normal -0.2588190451025231 3.9852981133607197e-19 0.9659258262890676
  outer loop
    vertex 55.77645713530757 120.0 2.1022225211328
    vertex 56.00000000000001 61.0 2.1948170074601348
    vertex 56.50000000000001 120.0 2.401923788646688
  endloop
endfacet
facet normal -0.38268343236508984 4.77946604489371e-19 0.9238795325112867
  outer loop
    vertex 56.00000000000001 61.0 2.1948170074601348
    vertex 55.77645713530757 120.0 2.1022225211328
    vertex 56.00000000000001 59.00000000000001 2.1948170074601348
  endloop
endfacet
facet normal -0.5558043288378964 -7.798495219619815e-17 0.8313131468015259
  outer loop
    vertex 56.50000000000001 120.0 2.401923788646688
    vertex 56.00000000000001 61.0 2.1948170074601348
    vertex 56.50000000000001 61.0 2.4019237886466844
  endloop
endfacet
facet normal -0.2588190451025231 3.9852981133607197e-19 0.9659258262890676
  outer loop
    vertex 55.77645713530757 0.0 2.1022225211328
    vertex 55.000000000000014 120.0 1.9999999999999998
    vertex 55.000000000000014 0.0 1.9999999999999998
  endloop
endfacet
facet normal -0.13052619222005632 3.122940626174746e-19 0.9914448613738098
  outer loop
    vertex 55.000000000000014 120.0 1.9999999999999998
    vertex 55.77645713530757 0.0 2.1022225211328
    vertex 55.77645713530757 120.0 2.1022225211328
  endloop
endfacet
facet normal -1.0 0.0 0.0
  outer loop
    vertex 56.00000000000001 2.5000000000000004 7.999999999999999
    vertex 56.00000000000001 0.0 6.0
    vertex 56.00000000000001 0.0 7.999999999999999
  endloop
endfacet
facet normal -1.0 0.0 0.0
  outer loop
    vertex 56.00000000000001 0.0 6.0
    vertex 56.00000000000001 2.5000000000000004 7.999999999999999
    vertex 56.00000000000001 2.5000000000000004 6.0
  endloop
endfacet
facet normal 0.0 1.0 0.0
  outer loop
    vertex 56.00000000000001 2.5000000000000004 7.999999999999999
    vertex 58.00000000000001 2.5000000000000004 6.0
    vertex 56.00000000000001 2.5000000000000004 6.0
  endloop
endfacet
facet normal 0.0 1.0 0.0
  outer loop
    vertex 58.00000000000001 2.5000000000000004 6.0
    vertex 56.00000000000001 2.5000000000000004 7.999999999999999
    vertex 58.00000000000001 2.5000000000000004 7.999999999999999
  endloop
endfacet
facet normal -1.0 0.0 0.0
  outer loop
    vertex 58.00000000000001 59.00000000000001 7.999999999999999
    vertex 58.00000000000001 2.5000000000000004 6.0
    vertex 58.00000000000001 2.5000000000000004 7.999999999999999
  endloop
endfacet
facet normal -1.0 0.0 0.0
  outer loop
    vertex 58.00000000000001 2.5000000000000004 6.0
    vertex 58.00000000000001 0.0 4.999999999999999
    vertex 58.00000000000001 0.0 6.0
  endloop
endfacet
facet normal -1.0 0.0 0.0
  outer loop
    vertex 58.00000000000001 0.0 4.999999999999999
    vertex 58.00000000000001 2.5000000000000004 6.0
    vertex 58.00000000000001 59.00000000000001 4.999999999999999
  endloop
endfacet
facet normal -1.0 0.0 0.0
  outer loop
    vertex 58.00000000000001 59.00000000000001 4.999999999999999
    vertex 58.00000000000001 2.5000000000000004 6.0
    vertex 58.00000000000001 59.00000000000001 7.999999999999999
  endloop
endfacet
facet normal 1.762479051592439e-16 -1.174986034394957e-16 -1.0
  outer loop
    vertex 58.00000000000001 2.5000000000000004 6.0
    vertex 56.00000000000001 0.0 6.0
    vertex 56.00000000000001 2.5000000000000004 6.0
  endloop
endfacet
facet normal 1.762479051592439e-16 -1.174986034394957e-16 -1.0
  outer loop
    vertex 56.00000000000001 0.0 6.0
    vertex 58.00000000000001 2.5000000000000004 6.0
    vertex 58.00000000000001 0.0 6.0
  endloop
endfacet
facet normal -1.0 0.0 0.0
  outer loop
    vertex 56.00000000000001 120.0 7.999999999999999
    vertex 56.00000000000001 117.50000000000001 6.0
    vertex 56.00000000000001 117.50000000000001 7.999999999999999
  endloop
endfacet
facet normal -1.0 0.0 0.0
  outer loop
    vertex 56.00000000000001 117.50000000000001 6.0
    vertex 56.00000000000001 120.0 7.999999999999999
    vertex 56.00000000000001 120.0 6.0
  endloop
endfacet
facet normal 1.7624790515924394e-16 1.1749860343949596e-16 -1.0
  outer loop
    vertex 58.00000000000001 120.0 6.0
    vertex 56.00000000000001 117.50000000000001 6.0
    vertex 56.00000000000001 120.0 6.0
  endloop
endfacet
facet normal 1.7624790515924394e-16 1.1749860343949596e-16 -1.0
  outer loop
    vertex 56.00000000000001 117.50000000000001 6.0
    vertex 58.00000000000001 120.0 6.0
    vertex 58.00000000000001 117.50000000000001 6.0
  endloop
endfacet
facet normal -1.0 0.0 0.0
  outer loop
    vertex 58.00000000000001 117.50000000000001 7.999999999999999
    vertex 58.00000000000001 61.0 4.999999999999999
    vertex 58.00000000000001 61.0 7.999999999999999
  endloop
endfacet
facet normal -1.0 0.0 0.0
  outer loop
    vertex 58.00000000000001 61.0 4.999999999999999
    vertex 58.00000000000001 117.50000000000001 7.999999999999999
    vertex 58.00000000000001 117.50000000000001 6.0
  endloop
endfacet
facet normal -1.0 0.0 0.0
  outer loop
    vertex 58.00000000000001 61.0 4.999999999999999
    vertex 58.00000000000001 117.50000000000001 6.0
    vertex 58.00000000000001 120.0 4.999999999999999
  endloop
endfacet
facet normal -1.0 0.0 0.0
  outer loop
    vertex 58.00000000000001 120.0 4.999999999999999
    vertex 58.00000000000001 117.50000000000001 6.0
    vertex 58.00000000000001 120.0 6.0
  endloop
endfacet
facet normal -0.0 1.0 -0.0
  outer loop
    vertex 56.00000000000001 61.0 7.999999999999999
    vertex 56.50000000000001 61.0 2.4019237886466844
    vertex 56.00000000000001 61.0 2.1948170074601348
  endloop
endfacet
facet normal -0.0 1.0 -0.0
  outer loop
    vertex 56.50000000000001 61.0 2.4019237886466844
    vertex 56.00000000000001 61.0 7.999999999999999
    vertex 57.12132034355966 61.0 2.8786796564403576
  endloop
endfacet
facet normal -0.0 1.0 -0.0
  outer loop
    vertex 57.12132034355966 61.0 2.8786796564403576
    vertex 56.00000000000001 61.0 7.999999999999999
    vertex 57.59807621135332 61.0 3.5000000000000013
  endloop
endfacet
facet normal -0.0 1.0 -0.0
  outer loop
    vertex 57.59807621135332 61.0 3.5000000000000013
    vertex 56.00000000000001 61.0 7.999999999999999
    vertex 57.89777747886722 61.0 4.223542864692439
  endloop
endfacet
facet normal -0.0 1.0 -0.0
  outer loop
    vertex 57.89777747886722 61.0 4.223542864692439
    vertex 56.00000000000001 61.0 7.999999999999999
    vertex 58.00000000000001 61.0 4.999999999999999
  endloop
endfacet
facet normal -0.0 1.0 -0.0
  outer loop
    vertex 58.00000000000001 61.0 4.999999999999999
    vertex 56.00000000000001 61.0 7.999999999999999
    vertex 58.00000000000001 61.0 7.999999999999999
  endloop
endfacet
facet normal -1.0 -7.122943667661489e-19 5.190785077754498e-15
  outer loop
    vertex -0.9999999999999883 9.999999999999998 2.5000000000000053
    vertex -0.9999999999999887 5.0 2.0000000000000053
    vertex -0.9999999999999887 5.0 2.5000000000000053
  endloop
endfacet
facet normal -1.0 -7.122943667661489e-19 5.190785077754498e-15
  outer loop
    vertex -0.9999999999999883 63.00000000000001 2.5000000000000053
    vertex -0.9999999999999883 57.00000000000001 2.0000000000000053
    vertex -0.9999999999999883 57.00000000000001 2.5000000000000053
  endloop
endfacet
facet normal -1.0 -7.122943667661489e-19 5.190785077754498e-15
  outer loop
    vertex -0.9999999999999887 115.00000000000001 2.5000000000000053
    vertex -0.9999999999999887 110.00000000000003 2.0000000000000053
    vertex -0.9999999999999887 110.00000000000003 2.5000000000000053
  endloop
endfacet
facet normal -1.0 -7.122943667661489e-19 5.190785077754498e-15
  outer loop
    vertex -0.9999999999999887 5.0 2.0000000000000053
    vertex -0.9999999999999999 -7.845857613429771e-19 5.699574917546562e-15
    vertex -0.9999999999999887 -7.845857613429771e-19 2.0000000000000053
  endloop
endfacet
facet normal -1.0 -7.122943667661489e-19 5.190785077754498e-15
  outer loop
    vertex -0.9999999999999999 -7.845857613429771e-19 5.699574917546562e-15
    vertex -0.9999999999999887 5.0 2.0000000000000053
    vertex -0.9999999999999999 120.0 5.699574917546562e-15
  endloop
endfacet
facet normal -1.0 -7.122943667661489e-19 5.190785077754498e-15
  outer loop
    vertex -0.9999999999999999 120.0 5.699574917546562e-15
    vertex -0.9999999999999887 5.0 2.0000000000000053
    vertex -0.9999999999999883 9.999999999999998 2.0000000000000053
  endloop
endfacet
facet normal -1.0 -7.122943667661489e-19 5.190785077754498e-15
  outer loop
    vertex -0.9999999999999883 9.999999999999998 2.0000000000000053
    vertex -0.9999999999999887 5.0 2.0000000000000053
    vertex -0.9999999999999883 9.999999999999998 2.5000000000000053
  endloop
endfacet
facet normal -1.0 -7.122943667661489e-19 5.190785077754498e-15
  outer loop
    vertex -0.9999999999999999 120.0 5.699574917546562e-15
    vertex -0.9999999999999883 9.999999999999998 2.0000000000000053
    vertex -0.9999999999999883 57.00000000000001 2.0000000000000053
  endloop
endfacet
facet normal -1.0 -7.122943667661489e-19 5.190785077754498e-15
  outer loop
    vertex -0.9999999999999999 120.0 5.699574917546562e-15
    vertex -0.9999999999999883 57.00000000000001 2.0000000000000053
    vertex -0.9999999999999885 63.00000000000001 2.0000000000000053
  endloop
endfacet
facet normal -1.0 -7.122943667661489e-19 5.190785077754498e-15
  outer loop
    vertex -0.9999999999999885 63.00000000000001 2.0000000000000053
    vertex -0.9999999999999883 57.00000000000001 2.0000000000000053
    vertex -0.9999999999999883 63.00000000000001 2.5000000000000053
  endloop
endfacet
facet normal -1.0 -7.122943667661489e-19 5.190785077754498e-15
  outer loop
    vertex -0.9999999999999999 120.0 5.699574917546562e-15
    vertex -0.9999999999999885 63.00000000000001 2.0000000000000053
    vertex -0.9999999999999887 110.00000000000003 2.0000000000000053
  endloop
endfacet
facet normal -1.0 -7.122943667661489e-19 5.190785077754498e-15
  outer loop
    vertex -0.9999999999999999 120.0 5.699574917546562e-15
    vertex -0.9999999999999887 110.00000000000003 2.0000000000000053
    vertex -0.9999999999999887 115.00000000000001 2.0000000000000053
  endloop
endfacet
facet normal -1.0 -7.122943667661489e-19 5.190785077754498e-15
  outer loop
    vertex -0.9999999999999887 115.00000000000001 2.0000000000000053
    vertex -0.9999999999999887 110.00000000000003 2.0000000000000053
    vertex -0.9999999999999887 115.00000000000001 2.5000000000000053
  endloop
endfacet
facet normal -1.0 -7.122943667661489e-19 5.190785077754498e-15
  outer loop
    vertex -0.9999999999999999 120.0 5.699574917546562e-15
    vertex -0.9999999999999887 115.00000000000001 2.0000000000000053
    vertex -0.9999999999999887 120.0 2.0000000000000053
  endloop
endfacet
facet normal 1.7624790515924344e-16 -7.049916206369755e-17 1.0
  outer loop
    vertex 2.000000000000018 110.00000000000003 3.9999999999999982
    vertex -3.999999999999987 115.00000000000001 3.9999999999999996
    vertex -3.999999999999987 110.00000000000003 3.9999999999999996
  endloop
endfacet
facet normal 1.7624790515924344e-16 -7.049916206369755e-17 1.0
  outer loop
    vertex -3.999999999999987 115.00000000000001 3.9999999999999996
    vertex 2.000000000000018 110.00000000000003 3.9999999999999982
    vertex 2.0000000000000173 115.00000000000001 3.999999999999999
  endloop
endfacet
facet normal -0.0 1.0 -0.0
  outer loop
    vertex -3.999999999999987 115.00000000000001 3.9999999999999996
    vertex -0.9999999999999887 115.00000000000001 2.5000000000000053
    vertex -3.999999999999987 115.00000000000001 2.4999999999999996
  endloop
endfacet
facet normal -0.0 1.0 -0.0
  outer loop
    vertex -0.9999999999999887 115.00000000000001 2.5000000000000053
    vertex -3.999999999999987 115.00000000000001 3.9999999999999996
    vertex 2.0000000000000173 115.00000000000001 3.999999999999999
  endloop
endfacet
facet normal -0.0 1.0 -0.0
  outer loop
    vertex -0.9999999999999887 115.00000000000001 2.0000000000000053
    vertex 2.0000000000000173 115.00000000000001 3.999999999999999
    vertex 6.0000000000000115 115.00000000000001 1.9999999999999998
  endloop
endfacet
facet normal -0.0 1.0 -0.0
  outer loop
    vertex 2.0000000000000173 115.00000000000001 3.999999999999999
    vertex -0.9999999999999887 115.00000000000001 2.0000000000000053
    vertex -0.9999999999999887 115.00000000000001 2.5000000000000053
  endloop
endfacet
facet normal -1.0 -0.0 -0.0
  outer loop
    vertex -3.999999999999987 115.00000000000001 3.9999999999999996
    vertex -3.999999999999987 110.00000000000003 2.4999999999999996
    vertex -3.999999999999987 110.00000000000003 3.9999999999999996
  endloop
endfacet
facet normal -1.0 -0.0 -0.0
  outer loop
    vertex -3.999999999999987 110.00000000000003 2.4999999999999996
    vertex -3.999999999999987 115.00000000000001 3.9999999999999996
    vertex -3.999999999999987 115.00000000000001 2.4999999999999996
  endloop
endfacet
facet normal 0.0 -1.0 0.0
  outer loop
    vertex 2.000000000000018 110.00000000000003 3.9999999999999982
    vertex -0.9999999999999887 110.00000000000003 2.0000000000000053
    vertex 6.0000000000000115 110.00000000000003 1.9999999999999998
  endloop
endfacet
facet normal 0.0 -1.0 0.0
  outer loop
    vertex -0.9999999999999887 110.00000000000003 2.0000000000000053
    vertex 2.000000000000018 110.00000000000003 3.9999999999999982
    vertex -0.9999999999999887 110.00000000000003 2.5000000000000053
  endloop
endfacet
facet normal 0.0 -1.0 0.0
  outer loop
    vertex -0.9999999999999887 110.00000000000003 2.5000000000000053
    vertex -3.999999999999987 110.00000000000003 3.9999999999999996
    vertex -3.999999999999987 110.00000000000003 2.4999999999999996
  endloop
endfacet
facet normal 0.0 -1.0 0.0
  outer loop
    vertex -3.999999999999987 110.00000000000003 3.9999999999999996
    vertex -0.9999999999999887 110.00000000000003 2.5000000000000053
    vertex 2.000000000000018 110.00000000000003 3.9999999999999982
  endloop
endfacet
facet normal -0.0 -0.0 1.0
  outer loop
    vertex 2.000000000000012 5.0 3.9999999999999996
    vertex -3.9999999999999885 10.0 3.9999999999999996
    vertex -3.9999999999999885 5.0 3.9999999999999996
  endloop
endfacet
facet normal -0.0 -0.0 1.0
  outer loop
    vertex -3.9999999999999885 10.0 3.9999999999999996
    vertex 2.000000000000012 5.0 3.9999999999999996
    vertex 2.000000000000012 10.0 3.9999999999999996
  endloop
endfacet
facet normal -1.3689157682271342e-17 1.0 -2.464048382808843e-16
  outer loop
    vertex -3.9999999999999885 10.0 3.9999999999999996
    vertex -0.9999999999999883 9.999999999999998 2.5000000000000053
    vertex -3.9999999999999885 10.0 2.4999999999999996
  endloop
endfacet
facet normal -1.3689157682271342e-17 1.0 -2.464048382808843e-16
  outer loop
    vertex -0.9999999999999883 9.999999999999998 2.0000000000000053
    vertex 2.000000000000012 10.0 3.9999999999999996
    vertex 6.0000000000000115 10.0 1.9999999999999998
  endloop
endfacet
facet normal -1.3689157682271342e-17 1.0 -2.464048382808843e-16
  outer loop
    vertex 2.000000000000012 10.0 3.9999999999999996
    vertex -0.9999999999999883 9.999999999999998 2.0000000000000053
    vertex -0.9999999999999883 9.999999999999998 2.5000000000000053
  endloop
endfacet
facet normal -1.3689157682271342e-17 1.0 -2.464048382808843e-16
  outer loop
    vertex 2.000000000000012 10.0 3.9999999999999996
    vertex -0.9999999999999883 9.999999999999998 2.5000000000000053
    vertex -3.9999999999999885 10.0 3.9999999999999996
  endloop
endfacet
facet normal -1.0 -0.0 -0.0
  outer loop
    vertex -3.9999999999999885 10.0 3.9999999999999996
    vertex -3.9999999999999885 5.0 2.4999999999999996
    vertex -3.9999999999999885 5.0 3.9999999999999996
  endloop
endfacet
facet normal -1.0 -0.0 -0.0
  outer loop
    vertex -3.9999999999999885 5.0 2.4999999999999996
    vertex -3.9999999999999885 10.0 3.9999999999999996
    vertex -3.9999999999999885 10.0 2.4999999999999996
  endloop
endfacet
facet normal 0.44721359549995804 -2.7806106498420176e-17 0.8944271909999159
  outer loop
    vertex 6.00000000000001 57.00000000000001 1.9999999999999998
    vertex 2.000000000000012 63.00000000000001 3.9999999999999996
    vertex 2.000000000000011 57.00000000000001 3.9999999999999996
  endloop
endfacet
facet normal 0.44721359549995804 -2.7806106498420176e-17 0.8944271909999159
  outer loop
    vertex 2.000000000000012 63.00000000000001 3.9999999999999996
    vertex 6.00000000000001 57.00000000000001 1.9999999999999998
    vertex 6.00000000000001 63.00000000000001 1.9999999999999998
  endloop
endfacet
facet normal -0.0 1.0 -0.0
  outer loop
    vertex -5.9999999999999885 63.00000000000001 1.9999999999999998
    vertex -3.9999999999999885 63.00000000000001 1.5
    vertex -5.499999999999988 63.00000000000001 1.5
  endloop
endfacet
facet normal -0.0 1.0 -0.0
  outer loop
    vertex -3.9999999999999885 63.00000000000001 1.5
    vertex -5.9999999999999885 63.00000000000001 1.9999999999999998
    vertex -3.9999999999999885 63.00000000000001 2.4999999999999996
  endloop
endfacet
facet normal -0.0 1.0 -0.0
  outer loop
    vertex -3.9999999999999885 63.00000000000001 2.4999999999999996
    vertex -5.9999999999999885 63.00000000000001 1.9999999999999998
    vertex -5.9999999999999885 63.00000000000001 3.9999999999999996
  endloop
endfacet
facet normal -0.0 1.0 -0.0
  outer loop
    vertex -3.9999999999999885 63.00000000000001 2.4999999999999996
    vertex -5.9999999999999885 63.00000000000001 3.9999999999999996
    vertex -0.9999999999999883 63.00000000000001 2.5000000000000053
  endloop
endfacet
facet normal -0.0 1.0 -0.0
  outer loop
    vertex -0.9999999999999885 63.00000000000001 2.0000000000000053
    vertex 2.000000000000012 63.00000000000001 3.9999999999999996
    vertex 6.00000000000001 63.00000000000001 1.9999999999999998
  endloop
endfacet
facet normal -0.0 1.0 -0.0
  outer loop
    vertex 2.000000000000012 63.00000000000001 3.9999999999999996
    vertex -0.9999999999999885 63.00000000000001 2.0000000000000053
    vertex -0.9999999999999883 63.00000000000001 2.5000000000000053
  endloop
endfacet
facet normal -0.0 1.0 -0.0
  outer loop
    vertex 2.000000000000012 63.00000000000001 3.9999999999999996
    vertex -0.9999999999999883 63.00000000000001 2.5000000000000053
    vertex -5.9999999999999885 63.00000000000001 3.9999999999999996
  endloop
endfacet
facet normal 7.841421278352863e-17 -2.1032512082231027e-20 1.0
  outer loop
    vertex 6.0000000000000115 10.0 1.9999999999999998
    vertex -0.9999999999999883 57.00000000000001 2.0000000000000053
    vertex -0.9999999999999883 9.999999999999998 2.0000000000000053
  endloop
endfacet
facet normal 7.841421278352863e-17 -2.1032512082231027e-20 1.0
  outer loop
    vertex -0.9999999999999883 57.00000000000001 2.0000000000000053
    vertex 6.0000000000000115 10.0 1.9999999999999998
    vertex 6.00000000000001 57.00000000000001 1.9999999999999998
  endloop
endfacet
facet normal 7.841421278352863e-17 -2.1032512082231027e-20 1.0
  outer loop
    vertex 6.00000000000001 57.00000000000001 1.9999999999999998
    vertex 6.0000000000000115 10.0 1.9999999999999998
    vertex 6.00000000000001 63.00000000000001 1.9999999999999998
  endloop
endfacet
facet normal 7.841421278352863e-17 -2.1032512082231027e-20 1.0
  outer loop
    vertex 55.000000000000014 0.0 1.9999999999999998
    vertex -0.9999999999999887 5.0 2.0000000000000053
    vertex -0.9999999999999887 -7.845857613429771e-19 2.0000000000000053
  endloop
endfacet
facet normal 7.841421278352863e-17 -2.1032512082231027e-20 1.0
  outer loop
    vertex -0.9999999999999887 5.0 2.0000000000000053
    vertex 55.000000000000014 0.0 1.9999999999999998
    vertex 6.0000000000000115 5.0 1.9999999999999998
  endloop
endfacet
facet normal 7.841421278352863e-17 -2.1032512082231027e-20 1.0
  outer loop
    vertex 6.0000000000000115 5.0 1.9999999999999998
    vertex 55.000000000000014 0.0 1.9999999999999998
    vertex 6.0000000000000115 10.0 1.9999999999999998
  endloop
endfacet
facet normal 7.841421278352863e-17 -2.1032512082231027e-20 1.0
  outer loop
    vertex 6.0000000000000115 10.0 1.9999999999999998
    vertex 55.000000000000014 0.0 1.9999999999999998
    vertex 6.0000000000000115 110.00000000000003 1.9999999999999998
  endloop
endfacet
facet normal 7.841421278352863e-17 -2.1032512082231027e-20 1.0
  outer loop
    vertex 6.0000000000000115 110.00000000000003 1.9999999999999998
    vertex 55.000000000000014 0.0 1.9999999999999998
    vertex 6.0000000000000115 115.00000000000001 1.9999999999999998
  endloop
endfacet
facet normal 7.841421278352863e-17 -2.1032512082231027e-20 1.0
  outer loop
    vertex 6.0000000000000115 115.00000000000001 1.9999999999999998
    vertex -0.9999999999999887 120.0 2.0000000000000053
    vertex -0.9999999999999887 115.00000000000001 2.0000000000000053
  endloop
endfacet
facet normal 7.841421278352863e-17 -2.1032512082231027e-20 1.0
  outer loop
    vertex -0.9999999999999887 120.0 2.0000000000000053
    vertex 6.0000000000000115 115.00000000000001 1.9999999999999998
    vertex 55.000000000000014 120.0 1.9999999999999998
  endloop
endfacet
facet normal 7.841421278352863e-17 -2.1032512082231027e-20 1.0
  outer loop
    vertex 55.000000000000014 120.0 1.9999999999999998
    vertex 6.0000000000000115 115.00000000000001 1.9999999999999998
    vertex 55.000000000000014 0.0 1.9999999999999998
  endloop
endfacet
facet normal 7.841421278352863e-17 -2.1032512082231027e-20 1.0
  outer loop
    vertex -0.9999999999999885 63.00000000000001 2.0000000000000053
    vertex 6.0000000000000115 110.00000000000003 1.9999999999999998
    vertex -0.9999999999999887 110.00000000000003 2.0000000000000053
  endloop
endfacet
facet normal 7.841421278352863e-17 -2.1032512082231027e-20 1.0
  outer loop
    vertex 6.0000000000000115 110.00000000000003 1.9999999999999998
    vertex -0.9999999999999885 63.00000000000001 2.0000000000000053
    vertex 6.00000000000001 63.00000000000001 1.9999999999999998
  endloop
endfacet
facet normal 7.841421278352863e-17 -2.1032512082231027e-20 1.0
  outer loop
    vertex 6.0000000000000115 110.00000000000003 1.9999999999999998
    vertex 6.00000000000001 63.00000000000001 1.9999999999999998
    vertex 6.0000000000000115 10.0 1.9999999999999998
  endloop
endfacet
facet normal 0.0 -1.0 0.0
  outer loop
    vertex 2.000000000000012 5.0 3.9999999999999996
    vertex -0.9999999999999887 5.0 2.0000000000000053
    vertex 6.0000000000000115 5.0 1.9999999999999998
  endloop
endfacet
facet normal 0.0 -1.0 0.0
  outer loop
    vertex -0.9999999999999887 5.0 2.0000000000000053
    vertex 2.000000000000012 5.0 3.9999999999999996
    vertex -0.9999999999999887 5.0 2.5000000000000053
  endloop
endfacet
facet normal 0.0 -1.0 0.0
  outer loop
    vertex -0.9999999999999887 5.0 2.5000000000000053
    vertex -3.9999999999999885 5.0 3.9999999999999996
    vertex -3.9999999999999885 5.0 2.4999999999999996
  endloop
endfacet
facet normal 0.0 -1.0 0.0
  outer loop
    vertex -3.9999999999999885 5.0 3.9999999999999996
    vertex -0.9999999999999887 5.0 2.5000000000000053
    vertex 2.000000000000012 5.0 3.9999999999999996
  endloop
endfacet
facet normal 0.44721359549995804 1.7781684284001847e-32 0.8944271909999161
  outer loop
    vertex 6.0000000000000115 5.0 1.9999999999999998
    vertex 2.000000000000012 10.0 3.9999999999999996
    vertex 2.000000000000012 5.0 3.9999999999999996
  endloop
endfacet
facet normal 0.44721359549995804 1.7781684284001847e-32 0.8944271909999161
  outer loop
    vertex 2.000000000000012 10.0 3.9999999999999996
    vertex 6.0000000000000115 5.0 1.9999999999999998
    vertex 6.0000000000000115 10.0 1.9999999999999998
  endloop
endfacet
facet normal 0.4472135954999583 -3.003059501829401e-17 0.8944271909999156
  outer loop
    vertex 2.000000000000018 110.00000000000003 3.9999999999999982
    vertex 6.0000000000000115 115.00000000000001 1.9999999999999998
    vertex 2.0000000000000173 115.00000000000001 3.999999999999999
  endloop
endfacet
facet normal 0.4472135954999583 -3.003059501829401e-17 0.8944271909999156
  outer loop
    vertex 6.0000000000000115 115.00000000000001 1.9999999999999998
    vertex 2.000000000000018 110.00000000000003 3.9999999999999982
    vertex 6.0000000000000115 110.00000000000003 1.9999999999999998
  endloop
endfacet
facet normal -1.0 0.0 0.0
  outer loop
    vertex -5.9999999999999885 63.00000000000001 3.9999999999999996
    vertex -5.9999999999999885 57.00000000000001 3.5
    vertex -5.9999999999999885 57.00000000000001 3.9999999999999996
  endloop
endfacet
facet normal -1.0 0.0 0.0
  outer loop
    vertex -5.9999999999999885 57.00000000000001 3.5
    vertex -5.9999999999999885 63.00000000000001 3.9999999999999996
    vertex -5.9999999999999885 57.00000000000001 1.9999999999999998
  endloop
endfacet
facet normal -1.0 0.0 0.0
  outer loop
    vertex -5.9999999999999885 57.00000000000001 1.9999999999999998
    vertex -5.9999999999999885 63.00000000000001 3.9999999999999996
    vertex -5.9999999999999885 63.00000000000001 1.9999999999999998
  endloop
endfacet
facet normal 0.0 0.0 -1.0
  outer loop
    vertex -3.9999999999999885 63.00000000000001 1.5
    vertex -5.499999999999988 57.00000000000001 1.5
    vertex -5.499999999999988 63.00000000000001 1.5
  endloop
endfacet
facet normal 0.0 0.0 -1.0
  outer loop
    vertex -5.499999999999988 57.00000000000001 1.5
    vertex -3.9999999999999885 63.00000000000001 1.5
    vertex -3.9999999999999885 57.00000000000001 1.5
  endloop
endfacet
facet normal -0.7071067811865471 -3.9049043730184886e-32 -0.7071067811865479
  outer loop
    vertex -5.499999999999988 63.00000000000001 1.5
    vertex -5.9999999999999885 57.00000000000001 1.9999999999999998
    vertex -5.9999999999999885 63.00000000000001 1.9999999999999998
  endloop
endfacet
facet normal -0.7071067811865471 -3.9049043730184886e-32 -0.7071067811865479
  outer loop
    vertex -5.9999999999999885 57.00000000000001 1.9999999999999998
    vertex -5.499999999999988 63.00000000000001 1.5
    vertex -5.499999999999988 57.00000000000001 1.5
  endloop
endfacet
facet normal 1.910299875274382e-15 -3.959182093321391e-32 -1.0
  outer loop
    vertex -0.9999999999999883 63.00000000000001 2.5000000000000053
    vertex -3.9999999999999885 57.00000000000001 2.4999999999999996
    vertex -3.9999999999999885 63.00000000000001 2.4999999999999996
  endloop
endfacet
facet normal 1.910299875274382e-15 -3.959182093321391e-32 -1.0
  outer loop
    vertex -3.9999999999999885 57.00000000000001 2.4999999999999996
    vertex -0.9999999999999883 63.00000000000001 2.5000000000000053
    vertex -0.9999999999999883 57.00000000000001 2.5000000000000053
  endloop
endfacet
facet normal 0.0 -1.0 0.0
  outer loop
    vertex 2.000000000000011 57.00000000000001 3.9999999999999996
    vertex -0.9999999999999883 57.00000000000001 2.0000000000000053
    vertex 6.00000000000001 57.00000000000001 1.9999999999999998
  endloop
endfacet
facet normal 0.0 -1.0 0.0
  outer loop
    vertex -0.9999999999999883 57.00000000000001 2.0000000000000053
    vertex 2.000000000000011 57.00000000000001 3.9999999999999996
    vertex -0.9999999999999883 57.00000000000001 2.5000000000000053
  endloop
endfacet
facet normal 0.0 -1.0 0.0
  outer loop
    vertex -0.9999999999999883 57.00000000000001 2.5000000000000053
    vertex 2.000000000000011 57.00000000000001 3.9999999999999996
    vertex -5.9999999999999885 57.00000000000001 3.5
  endloop
endfacet
facet normal 0.0 -1.0 0.0
  outer loop
    vertex -5.9999999999999885 57.00000000000001 3.5
    vertex 2.000000000000011 57.00000000000001 3.9999999999999996
    vertex -5.9999999999999885 57.00000000000001 3.9999999999999996
  endloop
endfacet
facet normal 0.0 -1.0 0.0
  outer loop
    vertex -3.9999999999999885 57.00000000000001 2.4999999999999996
    vertex -5.499999999999988 57.00000000000001 1.5
    vertex -3.9999999999999885 57.00000000000001 1.5
  endloop
endfacet
facet normal 0.0 -1.0 0.0
  outer loop
    vertex -5.499999999999988 57.00000000000001 1.5
    vertex -3.9999999999999885 57.00000000000001 2.4999999999999996
    vertex -5.9999999999999885 57.00000000000001 1.9999999999999998
  endloop
endfacet
facet normal 0.0 -1.0 0.0
  outer loop
    vertex -5.9999999999999885 57.00000000000001 1.9999999999999998
    vertex -3.9999999999999885 57.00000000000001 2.4999999999999996
    vertex -5.9999999999999885 57.00000000000001 3.5
  endloop
endfacet
facet normal 0.0 -1.0 0.0
  outer loop
    vertex -5.9999999999999885 57.00000000000001 3.5
    vertex -3.9999999999999885 57.00000000000001 2.4999999999999996
    vertex -0.9999999999999883 57.00000000000001 2.5000000000000053
  endloop
endfacet
facet normal -0.0 -0.0 1.0
  outer loop
    vertex 2.000000000000011 57.00000000000001 3.9999999999999996
    vertex -5.9999999999999885 63.00000000000001 3.9999999999999996
    vertex -5.9999999999999885 57.00000000000001 3.9999999999999996
  endloop
endfacet
facet normal -0.0 -0.0 1.0
  outer loop
    vertex -5.9999999999999885 63.00000000000001 3.9999999999999996
    vertex 2.000000000000011 57.00000000000001 3.9999999999999996
    vertex 2.000000000000012 63.00000000000001 3.9999999999999996
  endloop
endfacet
facet normal -0.0 -0.0 1.0
  outer loop
    vertex 60.0 0.0 7.999999999999999
    vertex 56.00000000000001 2.5000000000000004 7.999999999999999
    vertex 56.00000000000001 0.0 7.999999999999999
  endloop
endfacet
facet normal -0.0 -0.0 1.0
  outer loop
    vertex 56.00000000000001 2.5000000000000004 7.999999999999999
    vertex 60.0 0.0 7.999999999999999
    vertex 58.00000000000001 2.5000000000000004 7.999999999999999
  endloop
endfacet
facet normal -0.0 -0.0 1.0
  outer loop
    vertex 58.00000000000001 2.5000000000000004 7.999999999999999
    vertex 60.0 0.0 7.999999999999999
    vertex 58.00000000000001 59.00000000000001 7.999999999999999
  endloop
endfacet
facet normal -0.0 -0.0 1.0
  outer loop
    vertex 58.00000000000001 59.00000000000001 7.999999999999999
    vertex 60.0 0.0 7.999999999999999
    vertex 58.00000000000001 61.0 7.999999999999999
  endloop
endfacet
facet normal -0.0 -0.0 1.0
  outer loop
    vertex 58.00000000000001 61.0 7.999999999999999
    vertex 60.0 0.0 7.999999999999999
    vertex 58.00000000000001 117.50000000000001 7.999999999999999
  endloop
endfacet
facet normal -0.0 -0.0 1.0
  outer loop
    vertex 58.00000000000001 117.50000000000001 7.999999999999999
    vertex 56.00000000000001 120.0 7.999999999999999
    vertex 56.00000000000001 117.50000000000001 7.999999999999999
  endloop
endfacet
facet normal -0.0 -0.0 1.0
  outer loop
    vertex 56.00000000000001 120.0 7.999999999999999
    vertex 58.00000000000001 117.50000000000001 7.999999999999999
    vertex 60.0 120.0 7.999999999999999
  endloop
endfacet
facet normal -0.0 -0.0 1.0
  outer loop
    vertex 60.0 120.0 7.999999999999999
    vertex 58.00000000000001 117.50000000000001 7.999999999999999
    vertex 60.0 0.0 7.999999999999999
  endloop
endfacet
facet normal -0.0 -0.0 1.0
  outer loop
    vertex 58.00000000000001 59.00000000000001 7.999999999999999
    vertex 56.00000000000001 61.0 7.999999999999999
    vertex 56.00000000000001 59.00000000000001 7.999999999999999
  endloop
endfacet
facet normal -0.0 -0.0 1.0
  outer loop
    vertex 56.00000000000001 61.0 7.999999999999999
    vertex 58.00000000000001 59.00000000000001 7.999999999999999
    vertex 58.00000000000001 61.0 7.999999999999999
  endloop
endfacet
facet normal 0.0 -1.0 0.0
  outer loop
    vertex 58.00000000000001 117.50000000000001 7.999999999999999
    vertex 56.00000000000001 117.50000000000001 6.0
    vertex 58.00000000000001 117.50000000000001 6.0
  endloop
endfacet
facet normal 0.0 -1.0 0.0
  outer loop
    vertex 56.00000000000001 117.50000000000001 6.0
    vertex 58.00000000000001 117.50000000000001 7.999999999999999
    vertex 56.00000000000001 117.50000000000001 7.999999999999999
  endloop
endfacet
facet normal 0.8660254037844384 4.964242148356883e-17 -0.5000000000000007
  outer loop
    vertex 57.59807621135332 61.0 3.5000000000000013
    vertex 57.89777747886722 59.00000000000001 4.223542864692439
    vertex 57.59807621135332 59.00000000000001 3.5000000000000013
  endloop
endfacet
facet normal 0.9659258262890684 1.2409799366999116e-18 -0.2588190451025199
  outer loop
    vertex 57.89777747886722 59.00000000000001 4.223542864692439
    vertex 57.59807621135332 61.0 3.5000000000000013
    vertex 57.89777747886722 61.0 4.223542864692439
  endloop
endfacet
facet normal 0.9659258262890684 1.2409799366999116e-18 -0.2588190451025199
  outer loop
    vertex 57.89777747886722 61.0 4.223542864692439
    vertex 57.59807621135332 61.0 3.5000000000000013
    vertex 57.59807621135332 120.0 3.500000000000002
  endloop
endfacet
facet normal 0.9659258262890684 1.2409799366999116e-18 -0.2588190451025199
  outer loop
    vertex 57.89777747886722 61.0 4.223542864692439
    vertex 57.59807621135332 120.0 3.500000000000002
    vertex 57.89777747886722 120.0 4.223542864692439
  endloop
endfacet
facet normal 0.9659258262890684 1.2409799366999116e-18 -0.2588190451025199
  outer loop
    vertex 57.89777747886722 120.0 4.223542864692439
    vertex 58.00000000000001 61.0 4.999999999999999
    vertex 57.89777747886722 61.0 4.223542864692439
  endloop
endfacet
facet normal 0.9914448613738114 -0.0 -0.13052619222004497
  outer loop
    vertex 58.00000000000001 61.0 4.999999999999999
    vertex 57.89777747886722 120.0 4.223542864692439
    vertex 58.00000000000001 120.0 4.999999999999999
  endloop
endfacet
facet normal 0.707106781186548 1.0058427179014101e-16 -0.707106781186547
  outer loop
    vertex 57.121320343559645 120.0 2.878679656440361
    vertex 56.50000000000001 61.0 2.4019237886466844
    vertex 56.50000000000001 120.0 2.401923788646688
  endloop
endfacet
facet normal 0.5 5.206231254654726e-17 -0.8660254037844386
  outer loop
    vertex 56.50000000000001 61.0 2.4019237886466844
    vertex 57.121320343559645 120.0 2.878679656440361
    vertex 56.50000000000001 59.00000000000001 2.4019237886466844
  endloop
endfacet
facet normal 0.44203613921115675 2.603506987703537e-17 -0.8969972417077405
  outer loop
    vertex 56.50000000000001 59.00000000000001 2.4019237886466844
    vertex 57.121320343559645 120.0 2.878679656440361
    vertex 57.12132034355966 59.00000000000001 2.8786796564403576
  endloop
endfacet
facet normal 0.707106781186548 1.00584271790141e-16 -0.707106781186547
  outer loop
    vertex 57.12132034355966 59.00000000000001 2.8786796564403576
    vertex 57.121320343559645 120.0 2.878679656440361
    vertex 57.12132034355966 61.0 2.8786796564403576
  endloop
endfacet
facet normal 0.707106781186548 1.00584271790141e-16 -0.707106781186547
  outer loop
    vertex 57.12132034355966 61.0 2.8786796564403576
    vertex 57.59807621135332 59.00000000000001 3.5000000000000013
    vertex 57.12132034355966 59.00000000000001 2.8786796564403576
  endloop
endfacet
facet normal 0.8660254037844384 4.964242148356883e-17 -0.5000000000000007
  outer loop
    vertex 57.59807621135332 59.00000000000001 3.5000000000000013
    vertex 57.12132034355966 61.0 2.8786796564403576
    vertex 57.59807621135332 61.0 3.5000000000000013
  endloop
endfacet
facet normal 0.8660254037844384 4.964242148356883e-17 -0.5000000000000007
  outer loop
    vertex 57.59807621135332 61.0 3.5000000000000013
    vertex 57.12132034355966 61.0 2.8786796564403576
    vertex 57.121320343559645 120.0 2.878679656440361
  endloop
endfacet
facet normal 0.8660254037844384 4.964242148356883e-17 -0.5000000000000007
  outer loop
    vertex 57.59807621135332 61.0 3.5000000000000013
    vertex 57.121320343559645 120.0 2.878679656440361
    vertex 57.59807621135332 120.0 3.500000000000002
  endloop
endfacet
facet normal 0.0 -1.0 0.0
  outer loop
    vertex 56.50000000000001 59.00000000000001 2.4019237886466844
    vertex 56.00000000000001 59.00000000000001 7.999999999999999
    vertex 56.00000000000001 59.00000000000001 2.1948170074601348
  endloop
endfacet
facet normal 0.0 -1.0 0.0
  outer loop
    vertex 56.00000000000001 59.00000000000001 7.999999999999999
    vertex 56.50000000000001 59.00000000000001 2.4019237886466844
    vertex 57.12132034355966 59.00000000000001 2.8786796564403576
  endloop
endfacet
facet normal 0.0 -1.0 0.0
  outer loop
    vertex 56.00000000000001 59.00000000000001 7.999999999999999
    vertex 57.12132034355966 59.00000000000001 2.8786796564403576
    vertex 57.59807621135332 59.00000000000001 3.5000000000000013
  endloop
endfacet
facet normal 0.0 -1.0 0.0
  outer loop
    vertex 56.00000000000001 59.00000000000001 7.999999999999999
    vertex 57.59807621135332 59.00000000000001 3.5000000000000013
    vertex 57.89777747886722 59.00000000000001 4.223542864692439
  endloop
endfacet
facet normal 0.0 -1.0 0.0
  outer loop
    vertex 56.00000000000001 59.00000000000001 7.999999999999999
    vertex 57.89777747886722 59.00000000000001 4.223542864692439
    vertex 58.00000000000001 59.00000000000001 4.999999999999999
  endloop
endfacet
facet normal 0.0 -1.0 0.0
  outer loop
    vertex 56.00000000000001 59.00000000000001 7.999999999999999
    vertex 58.00000000000001 59.00000000000001 4.999999999999999
    vertex 58.00000000000001 59.00000000000001 7.999999999999999
  endloop
endfacet
facet normal -0.44203613921115675 -2.603506987703537e-17 0.8969972417077405
  outer loop
    vertex 56.50000000000001 59.00000000000001 2.4019237886466844
    vertex 56.00000000000001 61.0 2.1948170074601348
    vertex 56.00000000000001 59.00000000000001 2.1948170074601348
  endloop
endfacet
facet normal -0.382683432365094 -0.0 0.923879532511285
  outer loop
    vertex 56.00000000000001 61.0 2.1948170074601348
    vertex 56.50000000000001 59.00000000000001 2.4019237886466844
    vertex 56.50000000000001 61.0 2.4019237886466844
  endloop
endfacet
facet normal -1.0 0.0 0.0
  outer loop
    vertex 56.00000000000001 61.0 7.999999999999999
    vertex 56.00000000000001 59.00000000000001 2.1948170074601348
    vertex 56.00000000000001 59.00000000000001 7.999999999999999
  endloop
endfacet
facet normal -1.0 0.0 0.0
  outer loop
    vertex 56.00000000000001 59.00000000000001 2.1948170074601348
    vertex 56.00000000000001 61.0 7.999999999999999
    vertex 56.00000000000001 61.0 2.1948170074601348
  endloop
endfacet
facet normal 0.9659258262890684 1.2409799366999116e-18 -0.2588190451025199
  outer loop
    vertex 57.89777747886722 61.0 4.223542864692439
    vertex 58.00000000000001 59.00000000000001 4.999999999999999
    vertex 57.89777747886722 59.00000000000001 4.223542864692439
  endloop
endfacet
facet normal 0.9914448613738114 -0.0 -0.130526192220045
  outer loop
    vertex 58.00000000000001 59.00000000000001 4.999999999999999
    vertex 57.89777747886722 61.0 4.223542864692439
    vertex 58.00000000000001 61.0 4.999999999999999
  endloop
endfacet
facet normal 1.0 -0.0 -0.0
  outer loop
    vertex -3.9999999999999885 63.00000000000001 1.5
    vertex -3.9999999999999885 57.00000000000001 2.4999999999999996
    vertex -3.9999999999999885 57.00000000000001 1.5
  endloop
endfacet
facet normal 1.0 -0.0 -0.0
  outer loop
    vertex -3.9999999999999885 57.00000000000001 2.4999999999999996
    vertex -3.9999999999999885 63.00000000000001 1.5
    vertex -3.9999999999999885 63.00000000000001 2.4999999999999996
  endloop
endfacet
facet normal 0.0 0.0 -1.0
  outer loop
    vertex -0.9999999999999887 115.00000000000001 2.5000000000000053
    vertex -3.999999999999987 110.00000000000003 2.4999999999999996
    vertex -3.999999999999987 115.00000000000001 2.4999999999999996
  endloop
endfacet
facet normal 0.0 0.0 -1.0
  outer loop
    vertex -3.999999999999987 110.00000000000003 2.4999999999999996
    vertex -0.9999999999999887 115.00000000000001 2.5000000000000053
    vertex -0.9999999999999887 110.00000000000003 2.5000000000000053
  endloop
endfacet
facet normal 0.0 0.0 -1.0
  outer loop
    vertex -0.9999999999999883 9.999999999999998 2.5000000000000053
    vertex -3.9999999999999885 5.0 2.4999999999999996
    vertex -3.9999999999999885 10.0 2.4999999999999996
  endloop
endfacet
facet normal 0.0 0.0 -1.0
  outer loop
    vertex -3.9999999999999885 5.0 2.4999999999999996
    vertex -0.9999999999999883 9.999999999999998 2.5000000000000053
    vertex -0.9999999999999887 5.0 2.5000000000000053
  endloop
endfacet
endsolid 6EXcover
